<?xml version="1.0" encoding="UTF-8"?>
<svg version="1.1" xmlns="http://www.w3.org/2000/svg" width="512" height="512">
<path d="M0 0 C0.82853485 -0.00979385 1.6570697 -0.01958771 2.51071167 -0.02967834 C71.59607669 -0.6774267 71.59607669 -0.6774267 90.921875 15.73071289 C92.58448624 17.74852429 92.62910014 19.08419642 92.6640625 21.67578125 C92.71046875 22.81853516 92.71046875 22.81853516 92.7578125 23.984375 C91.65774204 28.16030037 87.61015452 29.97323752 84.0612793 32.08178711 C82.92343994 32.69932861 81.78560059 33.31687012 80.61328125 33.953125 C79.99564407 34.29074356 79.3780069 34.62836212 78.74165344 34.97621155 C76.7807582 36.04734128 74.81645234 37.1119997 72.8515625 38.17578125 C70.27041828 39.57759578 67.69096518 40.98245775 65.11328125 42.390625 C64.19360062 42.89280045 64.19360062 42.89280045 63.25534058 43.40512085 C58.78243291 45.86247546 54.44668085 48.46462095 50.1640625 51.23828125 C50.70933594 51.83253906 51.25460937 52.42679688 51.81640625 53.0390625 C56.63499873 58.33539577 61.26416314 63.73708994 65.765625 69.3046875 C67.96492979 71.99471665 70.20178707 74.64498592 72.46020508 77.28515625 C74.71142963 79.92235902 76.93700813 82.58063951 79.1640625 85.23828125 C79.76089844 85.93050781 80.35773438 86.62273437 80.97265625 87.3359375 C83.68332311 90.70699345 84.7492911 93.46038445 84.63500977 97.7956543 C83.57949552 103.27021107 80.32576332 107.98483758 77.5390625 112.73828125 C76.86163743 113.9224124 76.18571348 115.10740348 75.51123047 116.29321289 C73.41994511 119.95597099 71.29590686 123.59901646 69.1640625 127.23828125 C68.82028564 127.82583191 68.47650879 128.41338257 68.12231445 129.01873779 C67.11076857 130.74720629 66.09835952 132.47516954 65.0859375 134.203125 C64.44736816 135.29367188 63.80879883 136.38421875 63.15087891 137.5078125 C61.93097032 139.58354471 60.70431565 141.65533034 59.47021484 143.72265625 C58.9180127 144.65464844 58.36581055 145.58664063 57.796875 146.546875 C57.31105957 147.35954834 56.82524414 148.17222168 56.32470703 149.00952148 C49.55209532 162.01481645 60.33949147 187.67915396 64.37393188 200.76049805 C67.19534895 208.95913846 70.2551088 214.64984097 77.85131836 219.06079102 C82.62114283 221.30662559 87.41518763 223.19800053 92.41894531 224.85693359 C98.36676892 227.05072668 103.64697118 230.25759878 109.06140137 233.52001953 C110.74810901 234.52634747 112.45644985 235.49613248 114.16503906 236.46484375 C115.6998291 237.33689453 115.6998291 237.33689453 117.265625 238.2265625 C118.61648193 238.99286987 118.61648193 238.99286987 119.99462891 239.7746582 C122.1640625 241.23828125 122.1640625 241.23828125 124.1640625 244.23828125 C124.4425354 246.9148407 124.4425354 246.9148407 124.48291016 250.1784668 C124.51271469 252.01002571 124.51271469 252.01002571 124.54312134 253.87858582 C124.56044815 255.85681084 124.56044815 255.85681084 124.578125 257.875 C124.59683597 259.23835931 124.61640933 260.60170704 124.6368103 261.96504211 C124.68814534 265.5504778 124.72776349 269.13595103 124.76495361 272.72155762 C124.80498481 276.38152363 124.85608115 280.04133326 124.90625 283.70117188 C125.00302545 290.88010105 125.08742482 298.05910586 125.1640625 305.23828125 C125.76683517 305.39670502 126.36960785 305.55512878 126.99064636 305.71835327 C133.26959649 307.36928651 139.54736268 309.02466452 145.82446289 310.68261719 C148.16661045 311.30061861 150.50905655 311.91748977 152.85180664 312.53320312 C156.22100868 313.41889541 159.58911284 314.30865955 162.95703125 315.19921875 C164.00304001 315.47325531 165.04904877 315.74729187 166.12675476 316.02963257 C167.59771355 316.41981064 167.59771355 316.41981064 169.09838867 316.81787109 C169.95776535 317.04437347 170.81714203 317.27087585 171.70256042 317.50424194 C178.74056112 319.60302919 178.74056112 319.60302919 181.1640625 323.23828125 C181.9235315 327.56725456 182.01558074 329.85371711 179.69140625 333.6328125 C177.60673503 336.2645545 175.42692366 338.75812547 173.1640625 341.23828125 C172.38546875 342.11226563 171.606875 342.98625 170.8046875 343.88671875 C169.27454982 345.59657059 167.7357028 347.29867556 166.1875 348.9921875 C164.58994322 350.76553721 163.08022758 352.55512107 161.6015625 354.42578125 C158.41955815 358.09732473 154.86559664 361.10343149 151.1640625 364.23828125 C149.79121094 365.4603125 149.79121094 365.4603125 148.390625 366.70703125 C130.91234416 382.14664993 102.06237676 404.31914869 78.00390625 405.62890625 C73.53704088 405.17449472 73.14652328 404.28173305 70.1640625 401.23828125 C65.55738123 401.26703706 61.38516976 402.41796397 57.1640625 404.23828125 C55.20222625 407.6483676 55.20222625 407.6483676 54.1640625 411.23828125 C43.20733852 418.45975842 24.92469635 416.64340386 12.2890625 416.61328125 C11.38809845 416.61240509 10.4871344 416.61152893 9.55886841 416.61062622 C-15.76414691 416.52964324 -44.18938085 413.68925305 -66.8359375 401.23828125 C-68.9609375 398.86328125 -68.9609375 398.86328125 -69.8359375 396.23828125 C-69.43316342 391.27073422 -67.70305058 387.85536847 -65.2734375 383.55078125 C-61.93575524 377.35305771 -60.93668617 372.23245823 -61.8359375 365.23828125 C-62.72732422 366.05619141 -62.72732422 366.05619141 -63.63671875 366.890625 C-69.86778419 372.55963477 -76.26940882 377.96286728 -82.8359375 383.23828125 C-83.60292969 383.98464844 -84.36992188 384.73101562 -85.16015625 385.5 C-88.08811836 387.40210677 -90.19619375 387.8978903 -93.68994141 387.70556641 C-97.87540134 386.79419322 -101.08526012 384.38434738 -104.5234375 381.92578125 C-105.30654297 381.38397217 -106.08964844 380.84216309 -106.89648438 380.28393555 C-113.92004231 375.34863702 -120.44260638 369.9549776 -126.8359375 364.23828125 C-127.69316406 363.50222656 -128.55039063 362.76617187 -129.43359375 362.0078125 C-152.08211329 342.30252371 -169.1552132 316.77525314 -180.8359375 289.23828125 C-181.10599609 288.60567383 -181.37605469 287.97306641 -181.65429688 287.32128906 C-186.66867818 275.35487046 -189.98726778 262.87637488 -192.8359375 250.23828125 C-193.01817871 249.43986816 -193.20041992 248.64145508 -193.38818359 247.81884766 C-199.12667485 221.15913056 -197.9825801 189.6523592 -191.8359375 163.23828125 C-191.62694824 162.31144531 -191.41795898 161.38460937 -191.20263672 160.4296875 C-182.75243869 123.91976821 -164.3907696 91.45301936 -138.8359375 64.23828125 C-138.34383789 63.71218262 -137.85173828 63.18608398 -137.34472656 62.64404297 C-128.30154036 53.05538595 -118.57756352 44.86677162 -107.8359375 37.23828125 C-107.2594043 36.82771484 -106.68287109 36.41714844 -106.08886719 35.99414062 C-71.59560861 11.81797014 -71.59560861 11.81797014 -54.8359375 13.23828125 C-53.8459375 13.89828125 -52.8559375 14.55828125 -51.8359375 15.23828125 C-51.8359375 15.89828125 -51.8359375 16.55828125 -51.8359375 17.23828125 C-51.08828125 17.02171875 -50.340625 16.80515625 -49.5703125 16.58203125 C-48.58546875 16.30359375 -47.600625 16.02515625 -46.5859375 15.73828125 C-45.61140625 15.45984375 -44.636875 15.18140625 -43.6328125 14.89453125 C-40.8359375 14.23828125 -40.8359375 14.23828125 -36.8359375 14.23828125 C-36.68125 12.59859375 -36.68125 12.59859375 -36.5234375 10.92578125 C-35.64757392 6.22796751 -35.64757392 6.22796751 -32.8359375 4.23828125 C-30.24129588 3.56292403 -27.78259302 3.03900335 -25.1484375 2.61328125 C-24.46587891 2.49210937 -23.78332031 2.3709375 -23.08007812 2.24609375 C-15.37358168 0.90709909 -7.8184366 0.07664734 0 0 Z " fill="#333232" transform="translate(211.8359375,79.76171875)"/>
<path d="M0 0 C9.74536528 1.98210819 16.96454489 13.23590024 22.23828125 21.046875 C23.62950358 23.00634307 24.74077703 24.34485942 26.6875 25.75 C33.95659443 26.26233707 41.68715364 23.73567724 48.6875 22.02734375 C50.9791082 21.48347753 53.27077672 20.93986544 55.5625 20.39648438 C59.13120389 19.54238309 62.69898958 18.6847209 66.265625 17.82202148 C69.73734503 16.98491829 73.21213718 16.16167137 76.6875 15.33984375 C77.74195313 15.08049545 78.79640625 14.82114716 79.8828125 14.55393982 C95.47972246 10.88664968 95.47972246 10.88664968 100.9375 14.05699158 C102.6875 15.75 102.6875 15.75 103.1875 19.1875 C104.30734387 22.94592098 104.30734387 22.94592098 107.4765625 24.09375 C110.52839005 25.0943492 113.56941552 25.98239816 116.6875 26.75 C117.54988281 25.77933594 117.54988281 25.77933594 118.4296875 24.7890625 C121.570637 21.95242645 123.31948735 22.06688873 127.421875 22.2265625 C131.77840188 22.92485748 135.87039546 24.14069352 140.0625 25.5 C140.8477002 25.75185059 141.63290039 26.00370117 142.44189453 26.26318359 C146.69349338 27.73161832 150.03257077 28.9435352 152.6875 32.75 C153.80905807 35.5042349 154.54785307 38.30092855 155.25 41.1875 C155.56360474 42.46246338 155.56360474 42.46246338 155.88354492 43.76318359 C156.51419439 46.41975487 157.10755123 49.0819367 157.6875 51.75 C157.85701172 52.5032959 158.02652344 53.2565918 158.20117188 54.03271484 C163.9108912 80.69189192 162.96259192 112.34590318 156.6875 138.75 C156.47319336 139.65508301 156.25888672 140.56016602 156.03808594 141.49267578 C149.87067587 166.58873815 139.1574553 190.36607288 124.6875 211.75 C123.759375 213.12671875 123.759375 213.12671875 122.8125 214.53125 C119.74677992 218.56210419 119.74677992 218.56210419 117.6875 219.75 C110.13862459 220.25628046 103.68527417 218.76253334 96.42578125 216.79296875 C94.70164253 216.33752434 94.70164253 216.33752434 92.94267273 215.87287903 C90.5250649 215.23167779 88.10888569 214.58506818 85.6940918 213.93334961 C82.00461025 212.93874283 78.31047284 211.96320827 74.61523438 210.99023438 C72.26011803 210.36309958 69.9052899 209.73488121 67.55078125 209.10546875 C66.45067215 208.8147197 65.35056305 208.52397064 64.21711731 208.22441101 C54.2099314 205.50760333 54.2099314 205.50760333 49.6875 202.75 C48.31417306 200.00334611 48.56785108 197.81375932 48.57397461 194.73974609 C48.57408791 192.84801163 48.57408791 192.84801163 48.57420349 190.9180603 C48.57931051 189.53651897 48.58452651 188.15497804 48.58984375 186.7734375 C48.59170856 185.3638209 48.59313217 183.95420366 48.59413147 182.54458618 C48.59795167 178.83246068 48.60777772 175.12037422 48.61883545 171.40826416 C48.62906025 167.62113981 48.63363138 163.83400917 48.63867188 160.046875 C48.64940042 152.61456552 48.66647089 145.18228823 48.6875 137.75 C47.92001938 137.45072098 47.15253876 137.15144196 46.36180115 136.84309387 C43.36320876 135.61744919 40.65825204 134.12268919 37.84765625 132.51171875 C36.71199219 131.86307861 35.57632813 131.21443848 34.40625 130.54614258 C31.93328601 129.12259428 29.46407682 127.69266134 26.99609375 126.26049805 C25.72791316 125.52514409 24.4596838 124.78987422 23.19140625 124.0546875 C22.56009796 123.68811539 21.92878967 123.32154327 21.27835083 122.94386292 C17.26096026 120.62268598 13.19998854 118.41232894 9.08984375 116.2578125 C8.08880615 115.71552002 7.08776855 115.17322754 6.05639648 114.61450195 C4.20221391 113.6114351 2.33111782 112.63876329 0.44165039 111.70385742 C-4.36659796 109.0430001 -6.77421989 106.77189551 -8.484375 101.49609375 C-8.93162748 99.68582903 -9.37464397 97.87422525 -9.78076172 96.05429077 C-10.40616612 93.34409737 -11.11203761 90.66061895 -11.82421875 87.97192383 C-13.31179055 82.33986231 -14.74900002 76.69645515 -16.16845703 71.046875 C-17.06447797 67.49215292 -17.9755029 63.94147797 -18.88671875 60.390625 C-19.46186606 58.10960893 -20.0361162 55.82836642 -20.609375 53.546875 C-21.01709137 51.97157013 -21.01709137 51.97157013 -21.43304443 50.36444092 C-23.65015269 41.41531028 -24.92053444 34.45370422 -20.20703125 26.140625 C-19.88594894 25.56592468 -19.56486664 24.99122437 -19.23405457 24.39910889 C-18.55787734 23.19763839 -17.87255737 22.00127028 -17.1784668 20.81005859 C-16.12538288 19.00065787 -15.10286614 17.17649385 -14.08398438 15.34765625 C-6.1765842 1.39847189 -6.1765842 1.39847189 0 0 Z " fill="#333232" transform="translate(335.3125,171.25)"/>
<path d="M0 0 C7.55231558 2.86494585 15.09085662 5.76360456 22.61865234 8.69238281 C25.53749918 9.82114409 28.46414028 10.92517063 31.39453125 12.0234375 C40.36033111 15.47864779 47.62238821 19.55460795 55.13500977 25.55566406 C59.70526122 29.16943171 64.3372959 32.04735423 69.5625 34.625 C70.20533936 34.94339844 70.84817871 35.26179688 71.51049805 35.58984375 C86.57346366 42.73850324 103.20032557 42.50916015 119 38 C121.17138131 37.11565561 123.33800815 36.21955737 125.5 35.3125 C137.86731383 30.73046593 152.91260562 31.08721249 165.05078125 36.16796875 C166.36852766 36.77574857 167.68472717 37.38688558 169 38 C187.78488286 46.52426014 203.32108935 52.22118388 224 53 C224.01933594 53.67804688 224.03867187 54.35609375 224.05859375 55.0546875 C224.62743732 59.28876028 225.35309447 62.61330186 228.74609375 65.47021484 C233.58878073 68.74038126 238.7656838 71.41759875 244 74 C245.33342012 74.66649306 246.6667783 75.33311012 248 76 C248 76.66 248 77.32 248 78 C234.08905822 84.74341385 222.42444085 88.81441827 207.19140625 83.6796875 C204.32833277 82.7916754 201.96674703 82.5658419 199 83 C196.96117905 83.87129307 196.96117905 83.87129307 196 86 C195.4838778 89.44081468 195.07564234 92.64142451 197.09765625 95.61328125 C205.20069311 101.52001243 218.48661723 101.9123946 228 101 C239.72392364 99.09247801 250.39610452 94.26786172 260.4296875 88.0390625 C265.43909257 86.01398385 270.5896275 88.17291725 275.375 90.1875 C278.64318845 92.15499884 280.53946986 93.66114498 281.79980469 97.32519531 C283.11369025 103.89940962 283.28079546 110.6295455 281 117 C277.54494455 121.60794782 272.3426613 123.77685664 267.18066406 126.01171875 C264.4675543 127.24130544 262.00269223 128.74708576 259.47509766 130.31469727 C245.47084665 138.92217846 230.27782518 142.24392632 214.125 138.75 C204.33993298 136.3124344 195.00964802 132.14493069 185.73486328 128.24121094 C167.71539116 120.71204942 149.56598633 119.23442871 131 126 C127.55797974 127.42243333 124.16508767 128.94943919 120.77319336 130.48681641 C106.28447767 136.99123066 91.18460798 138.20878068 76 133 C69.45747558 130.01771855 63.43686239 126.31719221 57.4375 122.375 C40.9763424 111.78095052 22.16404881 108.96895146 3 112 C-0.64740725 102.79463885 -3.01071195 93.55982864 -4.6875 83.8125 C-4.81898437 83.06436035 -4.95046875 82.3162207 -5.0859375 81.54541016 C-5.89188897 76.63495582 -6.11833501 71.97570543 -6 67 C4.55937965 64.07900775 17.31582723 64.9258136 27 70 C27.72832031 70.37769531 28.45664063 70.75539063 29.20703125 71.14453125 C34.35404154 74.21418964 38.29974181 78.23166403 42.4375 82.5 C54.39535297 94.80671004 67.82739006 99.87486853 84.875 100.1875 C99.66922075 100.01474371 111.58197661 94.66161424 124.1875 87.3125 C134.50664805 81.35768325 143.94511221 78.78201911 156 80 C158.79874534 80.79572171 161.30795 81.86650526 164 83 C167.37150025 83.38901926 169.26293203 83.31034441 172.375 82 C174.47185895 79.41925052 174.6967193 77.21422764 174.4921875 73.9296875 C174.09855695 71.71682528 174.09855695 71.71682528 171.75 69.6875 C159.79789221 63.43349011 145.14522839 63.25059181 132.375 66.75 C124.37540192 69.31849347 117.11824826 73.50360449 109.88818359 77.72167969 C98.01376863 84.57490102 85.96645735 87.35789133 72.43359375 84.15625 C63.68039096 81.09727949 56.4449445 76.26543699 50.60546875 69.03515625 C44.34942709 61.36649893 34.38807244 55.81788177 25 53 C23.84113281 52.64035156 22.68226562 52.28070313 21.48828125 51.91015625 C15.88132546 50.53711794 10.23637902 50.78579793 4.5 50.875 C3.39140625 50.88402344 2.2828125 50.89304687 1.140625 50.90234375 C-1.57314592 50.92573833 -4.28645545 50.95851825 -7 51 C-7.64039449 33.68938852 -5.42539156 16.45644126 0 0 Z " fill="#FD7272" transform="translate(39,237)"/>
<path d="M0 0 C3.02319751 0.62710989 6.007765 1.34029536 8.99902344 2.10522461 C10.07990234 2.3747998 11.16078125 2.644375 12.27441406 2.92211914 C41.41815685 10.39674299 68.80348045 23.18550029 91.99902344 42.54272461 C92.86068115 43.25428711 92.86068115 43.25428711 93.73974609 43.98022461 C105.30144092 53.56142949 115.73577829 63.67726042 124.99902344 75.54272461 C126.0934375 76.92911133 126.0934375 76.92911133 127.20996094 78.34350586 C131.55781204 83.98045667 135.64683002 89.78543231 139.56152344 95.73022461 C140.00359131 96.37113037 140.44565918 97.01203613 140.90112305 97.67236328 C143.6263102 101.92257058 144.7563388 105.45951943 144.4543457 110.54736328 C143.99902344 112.54272461 143.99902344 112.54272461 142.02246094 115.11303711 C138.08180243 116.97644927 134.84752289 116.81776703 130.62402344 116.41772461 C129.39401611 116.32793335 129.39401611 116.32793335 128.13916016 116.23632812 C125.42301137 116.03069792 122.71163293 115.79056532 119.99902344 115.54272461 C119.03351563 115.45651855 118.06800781 115.3703125 117.07324219 115.28149414 C115.59791016 115.14976807 115.59791016 115.14976807 114.09277344 115.01538086 C113.09938965 114.92724121 112.10600586 114.83910156 111.08251953 114.74829102 C109.17321918 114.5752912 107.26459786 114.39453986 105.35693359 114.2043457 C102.57276587 113.93944818 99.78893479 113.73717586 96.99902344 113.54272461 C95.99661621 113.44016357 94.99420898 113.33760254 93.96142578 113.23193359 C84.03381231 112.6170768 76.8932103 116.26644261 68.37402344 120.73022461 C66.93419969 121.45902909 65.49293089 122.18498516 64.05029297 122.90820312 C61.11953083 124.38079951 58.19535952 125.86529585 55.27636719 127.36108398 C48.8485579 130.64910535 42.36611397 133.82158153 35.87402344 136.98022461 C34.22345947 137.8033313 34.22345947 137.8033313 32.53955078 138.64306641 C22.47393358 143.56370128 22.47393358 143.56370128 16.99902344 143.54272461 C14.54199219 142.56616211 14.54199219 142.56616211 12.18652344 140.91772461 C11.25839844 140.27834961 10.33027344 139.63897461 9.37402344 138.98022461 C8.24836419 138.16863819 7.12344178 137.35602938 5.99902344 136.54272461 C4.4993966 135.47969799 2.99936794 134.41723808 1.49902344 133.35522461 C-17.288663 119.96735174 -17.288663 119.96735174 -19.00097656 116.54272461 C-19.51946396 110.33707861 -17.92342687 105.28033209 -16.00097656 99.41772461 C-15.43199638 97.66721349 -14.86927669 95.9146525 -14.31347656 94.15991211 C-13.93642578 93.00918213 -13.93642578 93.00918213 -13.55175781 91.83520508 C-12.93095055 89.25125997 -12.70324322 87.18873153 -13.00097656 84.54272461 C-14.19277021 82.94573413 -14.19277021 82.94573413 -15.98144531 81.77319336 C-16.64096191 81.28463867 -17.30047852 80.79608398 -17.97998047 80.29272461 C-19.07318604 79.51928711 -19.07318604 79.51928711 -20.18847656 78.73022461 C-21.74234817 77.5889592 -23.29570952 76.44699882 -24.84863281 75.30444336 C-25.68023926 74.70035645 -26.5118457 74.09626953 -27.36865234 73.47387695 C-32.00938203 70.06929786 -36.56006515 66.54660834 -41.12597656 63.04272461 C-47.99667953 57.77755709 -47.99667953 57.77755709 -55.02441406 52.72631836 C-58.19247118 50.40224497 -59.25559942 49.36278247 -60.00097656 45.54272461 C-60.07076702 42.33236363 -59.67368287 40.38457962 -57.64941406 37.85131836 C-55.83140238 35.99595028 -53.94861395 34.26144893 -52.00097656 32.54272461 C-51.34226562 31.95233398 -50.68355469 31.36194336 -50.00488281 30.75366211 C-48.67235509 29.57438806 -47.32986071 28.40627804 -45.97753906 27.24975586 C-44.67827188 26.12766147 -43.40101491 24.97946947 -42.14941406 23.80444336 C-38.57679435 20.50724587 -36.09276289 18.54272461 -31.00097656 18.54272461 C-28.12597656 19.48022461 -28.12597656 19.48022461 -26.00097656 20.54272461 C-21.01265869 16.75645521 -21.01265869 16.75645521 -18.67675781 11.24975586 C-18.76701895 9.71015882 -18.86580864 8.17103515 -18.97363281 6.63256836 C-19.00097656 4.54272461 -19.00097656 4.54272461 -17.75097656 1.48022461 C-12.69472814 -2.08213223 -5.91967174 -0.90201311 0 0 Z " fill="#333232" transform="translate(352.0009765625,16.457275390625)"/>
<path d="M0 0 C1.39992187 0.49306641 1.39992187 0.49306641 2.828125 0.99609375 C8.89206549 3.33897985 14.44780578 6.32274629 20.0625 9.5625 C33.14939188 17.10527495 48.44589072 22.94082228 63.66796875 19.06640625 C66.10045477 18.3379208 68.52359554 17.57708617 70.93359375 16.77734375 C75.35208268 15.65724274 75.35208268 15.65724274 78 17 C79.95693204 18.85591047 81.64923663 20.63969247 83.375 22.6875 C83.85066406 23.20505859 84.32632813 23.72261719 84.81640625 24.25585938 C86.1484375 25.82421875 86.1484375 25.82421875 88 29 C87.4765625 32.08203125 87.4765625 32.08203125 86 35 C85.62488281 35.89332031 85.24976563 36.78664062 84.86328125 37.70703125 C82.21815219 40.96214814 79.10047753 41.67724035 75.1875 42.6875 C74.42993408 42.89753662 73.67236816 43.10757324 72.8918457 43.32397461 C67.06542082 44.87813574 61.24627489 45.74119265 55.265625 46.4921875 C43.09995502 48.38397829 31.43267535 54.08672589 22.0625 62 C11.91328127 70.44676914 0.56934415 74.01672484 -12 77 C-16.99613919 78.11355885 -16.99613919 78.11355885 -21 81 C-21.5333378 85.58629057 -21.5333378 85.58629057 -19.83203125 89.69140625 C-15.64985624 92.67867411 -9.8529793 91.51470993 -5 91 C8.68957228 88.40280734 20.6463738 82.62040096 31.5 73.9375 C42.07894588 65.51484293 53.61938882 61.35480591 67 60 C68.34339752 60.2901241 69.68080235 60.61450494 71 61 C70.63648438 61.59949463 70.27296875 62.19898926 69.8984375 62.81665039 C68.24960519 65.55598446 66.62475949 68.30882542 65 71.0625 C64.42765625 72.00544922 63.8553125 72.94839844 63.265625 73.91992188 C59.23648598 80.80303436 57.98767489 85.22510603 59.953125 93.05859375 C60.37710874 94.520664 60.80976317 95.98024121 61.25 97.4375 C61.70866058 99.02166459 62.16565682 100.60631188 62.62109375 102.19140625 C62.8516748 102.98820801 63.08225586 103.78500977 63.31982422 104.60595703 C64.38243834 108.34608413 65.35952249 112.10564926 66.3125 115.875 C66.63863281 117.15117187 66.96476563 118.42734375 67.30078125 119.7421875 C68 123 68 123 68 127 C53.51110541 128.04529099 41.26843583 122.00945402 28.39453125 116.06640625 C16.90497088 110.86222646 6.2756368 107.23305515 -6.4375 107.3125 C-7.54625488 107.3132251 -8.65500977 107.3139502 -9.79736328 107.31469727 C-20.5215799 107.57687876 -30.00903777 110.35396779 -39.93896484 114.24389648 C-50.99684471 118.30054822 -63.5767062 116.59091734 -74.15039062 111.93359375 C-80.6625969 108.6465456 -86.36390535 103.89171779 -92.04882812 99.37060547 C-99.67740903 93.61698168 -108.06166376 90.35641104 -116.875 86.875 C-118.36636126 86.27592281 -119.85725003 85.67566799 -121.34765625 85.07421875 C-124.22407153 83.91474644 -127.10275376 82.76122555 -129.98339844 81.61230469 C-135.34703104 79.46742952 -140.67637977 77.24226824 -146 75 C-144.44888032 70.27613552 -142.86121671 65.61272662 -141 61 C-136.30849111 60.89935707 -131.61764193 60.82771883 -126.92529297 60.78027344 C-125.33696519 60.76044732 -123.74870741 60.73337779 -122.16064453 60.69824219 C-104.30847851 60.31383836 -88.36515549 63.07380443 -74.25 74.875 C-66.36899215 81.46154279 -55.75746896 88.18538199 -45.3125 88.0625 C-44.31863281 88.05347656 -43.32476562 88.04445313 -42.30078125 88.03515625 C-41.54152344 88.02355469 -40.78226562 88.01195312 -40 88 C-38.8154869 84.44646071 -38.73358106 81.72986522 -39 78 C-41.32063489 74.7813112 -44.33316706 74.03330856 -48 72.8125 C-54.96376973 70.2387649 -60.19964579 66.55184747 -66 62 C-82.59321989 49.52292768 -98.62870573 46.09359765 -119 45.4375 C-120.87751953 45.37272461 -120.87751953 45.37272461 -122.79296875 45.30664062 C-125.86188523 45.20121983 -128.93087389 45.09909658 -132 45 C-128.9182982 39.22056785 -125.61957993 33.78301931 -121.75 28.5 C-121.30398437 27.88125 -120.85796875 27.2625 -120.3984375 26.625 C-117.1860119 22.1860119 -117.1860119 22.1860119 -116 21 C-114.56545712 20.89079279 -113.12605559 20.84415089 -111.6875 20.82421875 C-92.44116972 20.38250533 -77.87705306 17.18128192 -61 8 C-41.86570193 -2.28022846 -21.31198945 -7.60702514 0 0 Z " fill="#E33834" transform="translate(190,147)"/>
<path d="M0 0 C16.95366798 -0.79263902 29.78019362 2.9467722 44.21875 12.0234375 C62.86471389 23.74251294 81.39123795 27.87180836 103.234375 23.05078125 C108.49025959 21.58414955 113.4561784 19.62347528 118.47265625 17.4921875 C121.68557939 16.13301071 124.90976972 14.88019336 128.1875 13.6875 C129.44626953 13.22923828 129.44626953 13.22923828 130.73046875 12.76171875 C135.50532921 11.1591408 139.90232988 10.75523771 144.9375 10.6875 C145.96327148 10.64399414 145.96327148 10.64399414 147.00976562 10.59960938 C158.86715415 10.45909338 170.11977961 16.15339399 180.875 20.5625 C203.14838809 29.50713647 223.36711479 32.45576668 245.97900391 23.18896484 C253.36641667 19.92119765 260.20015911 15.78835444 266.890625 11.28515625 C269 10 269 10 271 10 C271.01981934 10.61520508 271.03963867 11.23041016 271.06005859 11.86425781 C271.15549727 14.65992542 271.26509955 17.4548651 271.375 20.25 C271.42140625 21.70212891 271.42140625 21.70212891 271.46875 23.18359375 C271.50742187 24.11816406 271.54609375 25.05273438 271.5859375 26.015625 C271.63306885 27.30388184 271.63306885 27.30388184 271.68115234 28.61816406 C272.03798122 31.28372495 272.40329949 32.82403821 274 35 C276.58913397 36.24086036 276.58913397 36.24086036 279.72265625 37.0234375 C280.89328613 37.35311523 282.06391602 37.68279297 283.27001953 38.02246094 C289.31457596 39.60659524 295.36527361 41.15017661 301.4375 42.625 C303.87423905 43.21913921 306.31045766 43.81541785 308.74609375 44.4140625 C309.80497803 44.6713916 310.8638623 44.9287207 311.95483398 45.19384766 C315.02066112 46.00546966 318.00291193 46.96516749 321 48 C319.56501627 51.20888321 317.78256013 53.57806984 315.4375 56.1875 C314.81746094 56.88230469 314.19742187 57.57710938 313.55859375 58.29296875 C312.72141231 59.20988176 311.8779528 60.1220472 311 61 C308.64649857 60.98774218 306.34594753 60.90154629 304 60.75 C302.93543579 60.68329102 302.93543579 60.68329102 301.84936523 60.61523438 C295.82741213 60.17713019 289.9492658 59.25462136 284.02539062 58.10449219 C256.57682442 52.78448058 228.69527732 57.16128745 201.56347656 62.28588867 C177.70883702 66.77127215 153.63735402 66.41707121 130 61 C126.97687752 60.33778746 123.95225065 59.68276223 120.92749023 59.02807617 C119.01634188 58.61064155 117.10679728 58.1857494 115.19946289 57.7512207 C102.78886107 54.95160664 90.77900783 53.63021345 78.0625 53.6875 C77.34743286 53.6873288 76.63236572 53.68715759 75.89562988 53.6869812 C64.79996816 53.69826042 54.09130536 54.55561973 43.140625 56.44140625 C39.81948056 56.95798801 37.20974475 57.23894995 34 56 C20.96871331 45.19478723 11.81106736 27.73739925 4 13 C3.43925781 11.97132813 2.87851562 10.94265625 2.30078125 9.8828125 C-0.3096843 4.94795981 -0.3096843 4.94795981 -1 3 C-0.67 2.01 -0.34 1.02 0 0 Z " fill="#C42828" transform="translate(49,363)"/>
<path d="M0 0 C7.55231558 2.86494585 15.09085662 5.76360456 22.61865234 8.69238281 C25.53749918 9.82114409 28.46414028 10.92517063 31.39453125 12.0234375 C40.36033111 15.47864779 47.62238821 19.55460795 55.13500977 25.55566406 C59.70526122 29.16943171 64.3372959 32.04735423 69.5625 34.625 C70.20533936 34.94339844 70.84817871 35.26179688 71.51049805 35.58984375 C86.57346366 42.73850324 103.20032557 42.50916015 119 38 C121.17138131 37.11565561 123.33800815 36.21955737 125.5 35.3125 C137.86731383 30.73046593 152.91260562 31.08721249 165.05078125 36.16796875 C166.36852766 36.77574857 167.68472717 37.38688558 169 38 C187.78488286 46.52426014 203.32108935 52.22118388 224 53 C224.01933594 53.67804688 224.03867187 54.35609375 224.05859375 55.0546875 C224.62743732 59.28876028 225.35309447 62.61330186 228.74609375 65.47021484 C233.58878073 68.74038126 238.7656838 71.41759875 244 74 C245.33342012 74.66649306 246.6667783 75.33311012 248 76 C248 76.66 248 77.32 248 78 C234.06686634 84.7541715 222.44001592 88.78534132 207.18359375 83.68359375 C204.27165202 82.77198409 202.01821447 82.50866276 199 83 C198.31035156 83.73476563 197.62070313 84.46953125 196.91015625 85.2265625 C194 87 194 87 191.92651367 86.68823242 C189.46827753 85.84620042 187.12231903 84.87251239 184.75 83.8125 C183.92242187 83.46896484 183.09484375 83.12542969 182.2421875 82.77148438 C176.25313826 80.25313826 176.25313826 80.25313826 175 79 C174.938125 77.906875 174.87625 76.81375 174.8125 75.6875 C174.33534286 71.91371363 174.33534286 71.91371363 171.6875 69.75 C159.91525803 63.29335665 145.03780826 63.280028 132.375 66.75 C124.37540192 69.31849347 117.11824826 73.50360449 109.88818359 77.72167969 C98.01376863 84.57490102 85.96645735 87.35789133 72.43359375 84.15625 C63.68039096 81.09727949 56.4449445 76.26543699 50.60546875 69.03515625 C44.34942709 61.36649893 34.38807244 55.81788177 25 53 C23.84113281 52.64035156 22.68226562 52.28070313 21.48828125 51.91015625 C15.88132546 50.53711794 10.23637902 50.78579793 4.5 50.875 C3.39140625 50.88402344 2.2828125 50.89304687 1.140625 50.90234375 C-1.57314592 50.92573833 -4.28645545 50.95851825 -7 51 C-7.64039449 33.68938852 -5.42539156 16.45644126 0 0 Z " fill="#E33834" transform="translate(39,237)"/>
<path d="M0 0 C-0.36351562 0.59949463 -0.72703125 1.19898926 -1.1015625 1.81665039 C-2.75039481 4.55598446 -4.37524051 7.30882542 -6 10.0625 C-6.57234375 11.00544922 -7.1446875 11.94839844 -7.734375 12.91992188 C-11.76351402 19.80303436 -13.01232511 24.22510603 -11.046875 32.05859375 C-10.62289126 33.520664 -10.19023683 34.98024121 -9.75 36.4375 C-9.29133942 38.02166459 -8.83434318 39.60631188 -8.37890625 41.19140625 C-8.1483252 41.98820801 -7.91774414 42.78500977 -7.68017578 43.60595703 C-6.61756166 47.34608413 -5.64047751 51.10564926 -4.6875 54.875 C-4.36136719 56.15117187 -4.03523437 57.42734375 -3.69921875 58.7421875 C-3 62 -3 62 -3 66 C-17.48889459 67.04529099 -29.73156417 61.00945402 -42.60546875 55.06640625 C-54.09502912 49.86222646 -64.7243632 46.23305515 -77.4375 46.3125 C-78.54625488 46.3132251 -79.65500977 46.3139502 -80.79736328 46.31469727 C-91.5215799 46.57687876 -101.00903777 49.35396779 -110.93896484 53.24389648 C-121.99684471 57.30054822 -134.5767062 55.59091734 -145.15039062 50.93359375 C-151.6625969 47.6465456 -157.36390535 42.89171779 -163.04882812 38.37060547 C-170.67740903 32.61698168 -179.06166376 29.35641104 -187.875 25.875 C-189.36636126 25.27592281 -190.85725003 24.67566799 -192.34765625 24.07421875 C-195.22407153 22.91474644 -198.10275376 21.76122555 -200.98339844 20.61230469 C-206.34703104 18.46742952 -211.67637977 16.24226824 -217 14 C-215.44888032 9.27613552 -213.86121671 4.61272662 -212 0 C-207.30849111 -0.10064293 -202.61764193 -0.17228117 -197.92529297 -0.21972656 C-196.33696519 -0.23955268 -194.74870741 -0.26662221 -193.16064453 -0.30175781 C-175.30847851 -0.68616164 -159.36515549 2.07380443 -145.25 13.875 C-137.36899215 20.46154279 -126.75746896 27.18538199 -116.3125 27.0625 C-115.31863281 27.05347656 -114.32476562 27.04445312 -113.30078125 27.03515625 C-112.54152344 27.02355469 -111.78226562 27.01195312 -111 27 C-110.34 25.68 -109.68 24.36 -109 23 C-103.72 23.33 -98.44 23.66 -93 24 C-92.01 26.475 -92.01 26.475 -91 29 C-82.80057595 33.09971202 -71.34097836 29.26512841 -63.140625 26.5390625 C-54.29630816 23.36991677 -46.79128566 18.77052853 -39.5 12.9375 C-29.58378717 5.04249221 -13.17380447 -3.84964039 0 0 Z " fill="#FC7272" transform="translate(261,208)"/>
<path d="M0 0 C-3.56158944 3.76834838 -7.29036642 6.82702579 -11.625 9.6875 C-12.59409302 10.32715698 -12.59409302 10.32715698 -13.58276367 10.97973633 C-25.47128754 18.66469213 -37.9622344 25.01007359 -51.30200195 29.7565918 C-56.235568 31.5302845 -56.235568 31.5302845 -60 35 C-60.73041853 38.61023099 -60.73041853 38.61023099 -61 42 C-63.12392506 42.6700834 -65.24917524 43.33596797 -67.375 44 C-68.55835938 44.37125 -69.74171875 44.7425 -70.9609375 45.125 C-74 46 -74 46 -76 46 C-77.01866229 44.34467377 -78.01810813 42.67739862 -79 41 C-83.72040859 38.6397957 -89.77743671 39.88079745 -94.75390625 40.9921875 C-102.46469934 42.43880846 -110.18661344 42.35037064 -118 42.3125 C-118.77756653 42.31067719 -119.55513306 42.30885437 -120.35626221 42.30697632 C-132.15903548 42.26037244 -143.46287222 41.65135883 -155 39 C-155.89976562 38.80180664 -156.79953125 38.60361328 -157.7265625 38.39941406 C-175.4586768 34.47421221 -175.4586768 34.47421221 -181 32 C-180.6390625 31.37738281 -180.278125 30.75476563 -179.90625 30.11328125 C-174.82107245 19.98530263 -175.49363469 10.08706313 -176 -1 C-175.25427734 -0.85377197 -174.50855469 -0.70754395 -173.74023438 -0.55688477 C-170.32736214 0.11070143 -166.91369457 0.77413216 -163.5 1.4375 C-161.74042969 1.78264648 -161.74042969 1.78264648 -159.9453125 2.13476562 C-129.90895401 7.95641938 -100.95659123 4.19081018 -71.20703125 -1.22265625 C-46.99921778 -5.57385748 -24.09811665 -4.78147328 0 0 Z " fill="#ED524F" transform="translate(343,438)"/>
<path d="M0 0 C0.61875 0.825 1.2375 1.65 1.875 2.5 C2.57625 3.325 3.2775 4.15 4 5 C8.58187837 5.3702528 12.77603822 4.76387269 17.25366211 3.93261719 C38.58138238 0.04167512 62.16220124 0.41591294 83.375 4.9375 C84.62990234 5.19176758 84.62990234 5.19176758 85.91015625 5.45117188 C90.67807216 6.43544337 95.33772129 7.59880303 100 9 C96.67231315 11.66789572 93.08284008 13.68219427 89.3359375 15.6875 C88.03632931 16.39299155 86.73685407 17.09872803 85.4375 17.8046875 C83.40036198 18.906988 81.36204711 20.00695379 79.32128906 21.10253906 C77.34343497 22.16607521 75.37068936 23.23861951 73.3984375 24.3125 C72.78696869 24.63758545 72.17549988 24.9626709 71.54550171 25.29760742 C68.4700753 26.97974643 66.98861226 28.01708162 65 31 C64.47963771 34.82650252 64.68117921 36.50544575 66.79296875 39.78125 C67.58316406 40.6784375 68.37335938 41.575625 69.1875 42.5 C70.00476563 43.44746094 70.82203125 44.39492187 71.6640625 45.37109375 C72.43492187 46.23863281 73.20578125 47.10617188 74 48 C79 53.76484018 79 53.76484018 79 56 C69.19362915 59.26879028 59.68555184 58.51700973 50.22021484 54.18554688 C46.38271414 52.26015371 42.644293 50.15858744 38.90234375 48.05517578 C17.40005762 36.12847139 -5.64498211 31.16809125 -30 37 C-37.86148925 39.3096393 -45.04402965 42.33902864 -52.15625 46.38671875 C-62.99311276 52.53455435 -74.17287547 58.85514164 -87 58 C-85.84651619 56.84651619 -84.69234697 55.6937132 -83.53564453 54.54345703 C-82.51050375 53.51310091 -81.49578082 52.47227562 -80.49169922 51.42138672 C-76.06019675 46.84070232 -71.32390562 42.9514657 -66.1875 39.1875 C-65.36217773 38.58220459 -64.53685547 37.97690918 -63.68652344 37.35327148 C-51.97735475 28.93020276 -39.35068418 22.40414274 -26.234375 16.47265625 C-25.16703125 15.98667969 -24.0996875 15.50070313 -23 15 C-21.34871094 14.30777344 -21.34871094 14.30777344 -19.6640625 13.6015625 C-16.8589759 12.25881654 -16.8589759 12.25881654 -15.9765625 9.73828125 C-15.80253906 8.53751953 -15.80253906 8.53751953 -15.625 7.3125 C-15.49351562 6.50425781 -15.36203125 5.69601563 -15.2265625 4.86328125 C-15.15179688 4.24839844 -15.07703125 3.63351563 -15 3 C-13.44033782 2.491217 -11.87710759 1.99336531 -10.3125 1.5 C-9.44238281 1.2215625 -8.57226562 0.943125 -7.67578125 0.65625 C-4.9536334 -0.01137166 -2.7867498 -0.30487519 0 0 Z " fill="#FD7272" transform="translate(176,94)"/>
<path d="M0 0 C0.72832031 0.37769531 1.45664063 0.75539063 2.20703125 1.14453125 C7.35404154 4.21418964 11.29974181 8.23166403 15.4375 12.5 C27.32938912 24.73882176 40.72025475 29.86913006 57.6875 30.1875 C64.59665234 30.15015323 71.21695449 29.26196196 78 28 C78.47308594 28.60585938 78.94617188 29.21171875 79.43359375 29.8359375 C86.44446998 38.719114 93.879885 47.11487225 102 55 C95.23216623 62.63322891 82.35063859 65.46956909 72.5859375 66.28515625 C56.09344305 66.70569657 44.00586724 61.29079942 30.4375 52.375 C13.9763424 41.78095052 -4.83595119 38.96895146 -24 42 C-27.64740725 32.79463885 -30.01071195 23.55982864 -31.6875 13.8125 C-31.81898437 13.06436035 -31.95046875 12.3162207 -32.0859375 11.54541016 C-32.89188897 6.63495582 -33.11833501 1.97570543 -33 -3 C-22.44062035 -5.92099225 -9.68417277 -5.0741864 0 0 Z " fill="#ED524F" transform="translate(66,307)"/>
<path d="M0 0 C7.55231558 2.86494585 15.09085662 5.76360456 22.61865234 8.69238281 C25.53749918 9.82114409 28.46414028 10.92517063 31.39453125 12.0234375 C40.39520453 15.49194531 47.85010283 19.56164341 55.34814453 25.66992188 C59.41405235 28.96554485 63.07678364 30.95664328 68 32.875 C74.50036013 36.16115992 75.99581309 40.60739188 78.1875 47.1875 C78.80482881 49.13674359 79.41805147 51.08729194 80.02734375 53.0390625 C81.90586624 59.00705145 84.41523444 64.49408087 87.25 70.0625 C87.6627417 70.88838623 88.0754834 71.71427246 88.50073242 72.56518555 C90.64757224 76.75206808 92.87635074 80.43932642 96 84 C86.29207466 87.01365621 75.09913857 85.61646515 65.9765625 81.62109375 C59.96052951 78.34464534 54.91154739 74.36682622 50.60546875 69.03515625 C44.34942709 61.36649893 34.38807244 55.81788177 25 53 C23.84113281 52.64035156 22.68226562 52.28070313 21.48828125 51.91015625 C15.88132546 50.53711794 10.23637902 50.78579793 4.5 50.875 C3.39140625 50.88402344 2.2828125 50.89304687 1.140625 50.90234375 C-1.57314592 50.92573833 -4.28645545 50.95851825 -7 51 C-7.64039449 33.68938852 -5.42539156 16.45644126 0 0 Z " fill="#C42828" transform="translate(39,237)"/>
<path d="M0 0 C3.65532079 0.46475809 7.31145265 0.9221517 10.96875 1.37109375 C11.84877686 1.47924408 12.72880371 1.58739441 13.63549805 1.69882202 C22.23857406 2.71767544 30.8468894 3.21257756 39.5 3.5625 C40.22044927 8.72779719 40.62018587 13.67937885 40.59765625 18.90625 C40.59553383 19.88809265 40.59553383 19.88809265 40.59336853 20.88977051 C40.58784307 22.94739674 40.57530559 25.00490756 40.5625 27.0625 C40.55747533 28.47135258 40.55291413 29.88020689 40.54882812 31.2890625 C40.5371003 34.71358638 40.52068691 38.13802047 40.5 41.5625 C35.46947535 40.91513365 31.07175863 39.45890214 26.35546875 37.69140625 C25.58624588 37.40901596 24.81702301 37.12662567 24.02449036 36.8356781 C20.75675887 35.63600116 17.49354103 34.42427226 14.23022461 33.21264648 C11.83618885 32.32583324 9.43967782 31.44596392 7.04296875 30.56640625 C6.32078659 30.29550674 5.59860443 30.02460724 4.85453796 29.74549866 C-3.4975524 26.68345566 -11.42423656 25.20139877 -20.3125 25.1875 C-21.12525391 25.16300781 -21.93800781 25.13851563 -22.77539062 25.11328125 C-34.43375908 25.05850426 -44.38784976 30.2044408 -54.4375 35.625 C-55.43845703 36.15416016 -56.43941406 36.68332031 -57.47070312 37.22851562 C-62.89486985 40.09814664 -62.89486985 40.09814664 -68.14526367 43.26757812 C-70.5 44.5625 -70.5 44.5625 -73.2734375 44.05859375 C-77.38403966 42.15258815 -81.24473029 39.95922475 -85.125 37.625 C-85.87523437 37.18220703 -86.62546875 36.73941406 -87.3984375 36.28320312 C-89.44664545 35.06480992 -91.47480815 33.8186385 -93.5 32.5625 C-94.33273437 32.06621094 -95.16546875 31.56992187 -96.0234375 31.05859375 C-97.5 29.5625 -97.5 29.5625 -97.59228516 26.96899414 C-97.56183105 26.17485107 -97.53137695 25.38070801 -97.5 24.5625 C-96.55253906 24.11148926 -96.55253906 24.11148926 -95.5859375 23.65136719 C-92.55616628 22.20742363 -89.52785418 20.76045932 -86.5 19.3125 C-85.38109375 18.77761963 -84.2621875 18.24273926 -83.109375 17.69165039 C-77.31703519 14.91196041 -71.54576635 12.09900693 -65.8125 9.19921875 C-64.75160156 8.66264648 -63.69070313 8.12607422 -62.59765625 7.57324219 C-60.58183366 6.54944326 -58.56865629 5.52041365 -56.55859375 4.48535156 C-53.89200218 3.13073046 -51.20881613 1.83028894 -48.5 0.5625 C-47.48486328 0.06580811 -47.48486328 0.06580811 -46.44921875 -0.44091797 C-32.68924948 -6.16199257 -14.25397302 -1.84007668 0 0 Z " fill="#E23834" transform="translate(439.5,236.4375)"/>
<path d="M0 0 C0.01981934 0.61520508 0.03963867 1.23041016 0.06005859 1.86425781 C0.15549727 4.65992542 0.26509955 7.4548651 0.375 10.25 C0.42140625 11.70212891 0.42140625 11.70212891 0.46875 13.18359375 C0.50742187 14.11816406 0.54609375 15.05273438 0.5859375 16.015625 C0.6173584 16.87446289 0.6487793 17.73330078 0.68115234 18.61816406 C1.02325592 21.17372489 1.61488065 22.8320788 3 25 C5.43366748 26.19540538 5.43366748 26.19540538 8.4375 26.9375 C9.58863281 27.26363281 10.73976563 27.58976562 11.92578125 27.92578125 C14.94027308 28.72919141 17.960497 29.51044027 20.98046875 30.29296875 C21.83133057 30.51412354 22.68219238 30.73527832 23.55883789 30.96313477 C25.25015545 31.39935985 26.94334144 31.8284129 28.63842773 32.24975586 C29.42032471 32.44835205 30.20222168 32.64694824 31.0078125 32.8515625 C32.05412842 33.11187256 32.05412842 33.11187256 33.12158203 33.37744141 C35 34 35 34 38 36 C36.37633024 36.4630237 34.75096194 36.92009098 33.125 37.375 C32.22007812 37.63023437 31.31515625 37.88546875 30.3828125 38.1484375 C-19.98225947 50.82694292 -75.07923629 41.14399991 -119.4453125 14.83203125 C-121.17693474 13.77123639 -122.90370126 12.70246554 -124.625 11.625 C-125.42486328 11.12524658 -126.22472656 10.62549316 -127.04882812 10.1105957 C-130.78250243 7.6997391 -133.443388 5.69660303 -136 2 C-132.88361947 0.44180973 -129.60642336 0.73244641 -126.1875 0.6875 C-125.49462891 0.65849609 -124.80175781 0.62949219 -124.08789062 0.59960938 C-112.18083295 0.46028287 -100.92734348 6.13407586 -90.125 10.5625 C-67.85161191 19.50713647 -47.63288521 22.45576668 -25.02099609 13.18896484 C-17.63358333 9.92119765 -10.79984089 5.78835444 -4.109375 1.28515625 C-2 0 -2 0 0 0 Z " fill="#E33834" transform="translate(320,373)"/>
<path d="M0 0 C0.62539673 0.22246399 1.25079346 0.44492798 1.8951416 0.6741333 C12.29006724 4.37710044 22.6524305 8.16692263 33 12 C32.5854073 19.41074622 31.7258736 26.18616888 29.4375 33.25 C29.20353516 34.00667969 28.96957031 34.76335937 28.72851562 35.54296875 C28.16332474 37.365421 27.58333285 39.18327335 27 41 C21.07784894 40.46938502 15.47720565 39.4894654 9.69189453 38.13256836 C-9.18587971 33.7651847 -25.33062282 33.94934724 -44 39 C-44.01401855 38.12263184 -44.01401855 38.12263184 -44.02832031 37.22753906 C-44.08213279 34.5675142 -44.16575449 31.90922778 -44.25 29.25 C-44.26417969 28.32960938 -44.27835937 27.40921875 -44.29296875 26.4609375 C-44.41946178 21.17697613 -44.41946178 21.17697613 -46.71875 16.5625 C-49.19122629 14.86902309 -51.65561774 13.25201078 -54.25 11.75 C-55.14203125 11.22921875 -56.0340625 10.7084375 -56.953125 10.171875 C-57.62859375 9.78515625 -58.3040625 9.3984375 -59 9 C-56.90784909 6.74115673 -54.91584257 5.2471975 -52.19921875 3.80859375 C-51.46896484 3.42123047 -50.73871094 3.03386719 -49.98632812 2.63476562 C-49.22771484 2.23966797 -48.46910156 1.84457031 -47.6875 1.4375 C-46.56698242 0.83905273 -46.56698242 0.83905273 -45.42382812 0.22851562 C-29.91515747 -7.92749291 -15.9560208 -5.68285864 0 0 Z " fill="#ED524F" transform="translate(444,282)"/>
<path d="M0 0 C4.34179621 4.27977055 8.42572707 8.74862137 12.5 13.28125 C13.325 14.1784375 14.15 15.075625 15 16 C15.78375 16.9384375 16.5675 17.876875 17.375 18.84375 C20.0705052 21.05791498 21.33225591 21.63016265 24.78515625 21.36376953 C30.0857868 20.49318537 35.28544272 19.21527479 40.5 17.9375 C42.49461072 17.45765443 44.48989914 16.98070776 46.48529053 16.50411987 C47.8688295 16.17366718 49.25216886 15.84237773 50.63531494 15.51028442 C55.58619994 14.32490061 60.5466574 13.18902098 65.515625 12.08203125 C66.20881836 11.927379 66.90201172 11.77272675 67.61621094 11.61338806 C70.94960894 10.87076376 74.2838879 10.13246246 77.61914062 9.39819336 C83.00053866 8.19823877 88.37729488 6.9755684 93.703125 5.546875 C94.85022949 5.24281738 94.85022949 5.24281738 96.02050781 4.93261719 C98.50690198 3.7611784 99.52503452 2.27970477 101 0 C102.75140143 0.45294865 104.50107344 0.91258748 106.25 1.375 C107.71179688 1.75785156 107.71179688 1.75785156 109.203125 2.1484375 C113.90329586 3.57949511 113.90329586 3.57949511 116 5 C116.226875 6.27875 116.45375 7.5575 116.6875 8.875 C117.24393854 11.5555822 117.51853293 12.65351377 119.76953125 14.2734375 C122.14823151 15.31489996 124.53924847 16.17111527 127 17 C128.85740924 17.74193324 130.71168333 18.4917707 132.5625 19.25 C134.04097333 19.83508838 135.51988469 20.41907792 137 21 C137.33 23.97 137.66 26.94 138 30 C128.30317487 30.29874274 118.95190362 29.51021993 109.34033203 28.34594727 C106.97641822 28.05964391 104.6114566 27.78381642 102.24609375 27.50976562 C100.72649271 27.33132247 99.20695873 27.15230715 97.6875 26.97265625 C96.98850586 26.89032242 96.28951172 26.80798859 95.56933594 26.72315979 C92.7987913 26.38648285 90.06497935 26.01322872 87.3293457 25.45629883 C82.98715798 24.60570153 78.59942809 24.68864749 74.1875 24.625 C73.24712891 24.58761719 72.30675781 24.55023438 71.33789062 24.51171875 C53.69880927 24.29934185 38.34885401 33.46351905 23.125 41.3125 C20.11645154 42.85188599 17.10616017 44.3877243 14.09371948 45.91947937 C12.2347749 46.86589535 10.37832652 47.81723405 8.52468872 48.77400208 C7.69556976 49.19832016 6.86645081 49.62263824 6.01220703 50.05981445 C5.28325226 50.43556107 4.55429749 50.81130768 3.80325317 51.19844055 C2 52 2 52 0 52 C-1.15009505 47.57358695 -2.28900617 43.14449661 -3.41796875 38.71264648 C-3.80298119 37.2076419 -4.19095624 35.7033918 -4.58203125 34.19995117 C-5.14597234 32.029785 -5.69894818 29.85706378 -6.25 27.68359375 C-6.42499023 27.01976181 -6.59998047 26.35592987 -6.78027344 25.67198181 C-8.25258048 19.78761383 -8.99183958 14.99917665 -6.25 9.47265625 C-5.51589089 8.32561077 -4.76553307 7.1888164 -4 6.0625 C-3.6184375 5.47404297 -3.236875 4.88558594 -2.84375 4.27929688 C-1.90995192 2.84358233 -0.95691073 1.42041436 0 0 Z " fill="#EC524F" transform="translate(337,194)"/>
<path d="M0 0 C4.91831934 3.49070099 8.25348909 7.44796726 10.1875 13.25 C11.19654033 20.21110101 9.99328024 25.15346718 6.08203125 30.98828125 C0.72151742 37.38774003 -6.65768608 40.90384381 -14.8125 42.25 C-26.85113395 43.31339078 -37.53771651 41.8428778 -47.0859375 34.00390625 C-51.53129338 29.4881488 -54.06200634 24.61362937 -54.4375 18.25 C-54.06200634 11.88637063 -51.53129338 7.0118512 -47.0859375 2.49609375 C-33.66790739 -8.51994331 -14.57352132 -8.94991293 0 0 Z " fill="#353232" transform="translate(189.8125,165.75)"/>
<path d="M0 0 C3.33290162 0.56665375 5.80864052 2.0134966 8.68463135 3.75119019 C9.58337479 4.28517174 9.58337479 4.28517174 10.50027466 4.8299408 C12.40270945 5.96595626 14.28938722 7.12561478 16.17681885 8.28634644 C17.41807364 9.03074244 18.6602568 9.77359271 19.90338135 10.51486206 C23.64289811 12.75571566 27.35249201 15.04234922 31.05181885 17.34884644 C31.7119397 17.75983582 32.37206055 18.1708252 33.05218506 18.5942688 C35.01225042 19.81935419 36.96668144 21.05287629 38.91900635 22.29025269 C39.52084747 22.6676207 40.1226886 23.04498871 40.74276733 23.43379211 C44.93547532 26.11615938 44.93547532 26.11615938 46.05181885 28.34884644 C46.61092872 34.03313016 46.61092872 34.03313016 46.05181885 36.34884644 C42.60884492 40.20940195 39.03864638 42.77268602 34.5713501 45.34494019 C33.65200935 45.87898216 33.65200935 45.87898216 32.71409607 46.42381287 C30.76833499 47.55205245 28.81661867 48.66946734 26.86431885 49.78634644 C24.93702134 50.89883575 23.01100232 52.01351433 21.08508301 53.12838745 C19.83292747 53.85204393 18.57964122 54.57374766 17.32519531 55.29342651 C12.86723029 57.85428058 8.4853921 60.52008574 4.14581299 63.27633667 C0.50547033 65.14086102 -1.93227708 65.04124369 -5.94818115 64.34884644 C-8.61454009 62.29111452 -9.79892669 61.10699169 -10.45611572 57.76876831 C-10.4592981 56.79488159 -10.46248047 55.82099487 -10.46575928 54.81759644 C-10.47836792 53.70964722 -10.49097656 52.601698 -10.50396729 51.46017456 C-10.49587036 50.26843628 -10.48777344 49.076698 -10.47943115 47.84884644 C-10.48325806 46.6210144 -10.48708496 45.39318237 -10.49102783 44.12814331 C-10.49374957 41.53243185 -10.48637026 38.93669308 -10.46966553 36.34103394 C-10.4482619 32.36385044 -10.46946078 28.38847362 -10.49505615 24.41134644 C-10.49241293 21.89050911 -10.48728806 19.36967291 -10.47943115 16.84884644 C-10.48752808 15.65710815 -10.495625 14.46536987 -10.50396729 13.23751831 C-10.49135864 12.12956909 -10.47875 11.02161987 -10.46575928 9.88009644 C-10.4625769 8.90620972 -10.45939453 7.932323 -10.45611572 6.92892456 C-9.31628042 1.13907622 -5.57185719 -0.30012214 0 0 Z " fill="#323232" transform="translate(425.94818115234375,407.6511535644531)"/>
<path d="M0 0 C2.37920652 -0.05173951 4.75802522 -0.12677979 7.13574219 -0.22558594 C29.06071576 -1.11778417 29.06071576 -1.11778417 36.07771301 4.83528137 C38.56827731 7.32771247 40.7127584 9.96353563 42.89379883 12.73461914 C44.6149939 14.50398319 46.40078701 16.17412948 48.20629883 17.85961914 C50.38208008 19.99243164 50.38208008 19.99243164 51.89379883 21.73461914 C51.89379883 22.39461914 51.89379883 23.05461914 51.89379883 23.73461914 C51.09438873 23.72795731 50.29497864 23.72129547 49.47134399 23.71443176 C41.85400663 23.65375482 34.23679013 23.60836205 26.61927223 23.57918262 C22.70514045 23.56367583 18.79121205 23.54272038 14.87719727 23.50830078 C-6.67604644 23.3238631 -26.34115187 24.15790739 -47.10620117 30.73461914 C-47.00307617 29.45586914 -46.89995117 28.17711914 -46.79370117 26.85961914 C-47.14220034 23.08020571 -48.27707265 21.32363281 -51.06713867 18.91040039 C-54.30624678 16.35957466 -57.67592042 14.01988267 -61.10620117 11.73461914 C-60.10620117 9.73461914 -60.10620117 9.73461914 -58.01635742 8.80493164 C-51.69531405 6.70658803 -45.35067312 5.00167671 -38.85620117 3.54711914 C-38.11249268 3.38034668 -37.36878418 3.21357422 -36.60253906 3.04174805 C-24.48541641 0.42437423 -12.35571455 0.21137567 0 0 Z " fill="#E33834" transform="translate(405.106201171875,72.265380859375)"/>
<path d="M0 0 C-1.83992224 5.82712457 -4.41592011 10.98037072 -7.25 16.375 C-7.71535156 17.2825 -8.18070312 18.19 -8.66015625 19.125 C-15.05059433 31.34253176 -15.05059433 31.34253176 -19 35 C-22.58630932 35.67390951 -25.48726761 34.89313999 -29 34 C-30.00885254 33.75612549 -30.00885254 33.75612549 -31.03808594 33.50732422 C-42.46694435 30.7337415 -53.73568769 27.36966607 -65 24 C-65 16.41 -65 8.82 -65 1 C-42.55284489 -10.22357756 -23.50628619 -5.70646526 0 0 Z " fill="#E23834" transform="translate(465,338)"/>
<path d="M0 0 C0.57621094 0.31227539 1.15242188 0.62455078 1.74609375 0.94628906 C3.92263192 1.96383009 5.70682881 2.45318684 8.0625 2.859375 C8.84906982 3.00221924 9.63563965 3.14506348 10.44604492 3.29223633 C11.2888501 3.44329834 12.13165527 3.59436035 13 3.75 C34.5193683 7.8596903 55.95619683 14.99755884 75 26 C75.495 26.99 75.495 26.99 76 28 C75.175 28.01458252 74.35 28.02916504 73.5 28.04418945 C51.57431819 28.3761914 51.57431819 28.3761914 30 32 C28.68542467 32.29404103 27.37029882 32.58562953 26.0546875 32.875 C17.52560632 34.81258698 9.46008998 37.5230695 1.328125 40.73046875 C-3.84330951 42.70314037 -3.84330951 42.70314037 -6 43 C-7.73925781 42.10375977 -7.73925781 42.10375977 -9.453125 40.69140625 C-10.071875 40.19189453 -10.690625 39.69238281 -11.328125 39.17773438 C-11.96234375 38.64470703 -12.5965625 38.11167969 -13.25 37.5625 C-13.8996875 37.03333984 -14.549375 36.50417969 -15.21875 35.95898438 C-16.8217887 34.65062191 -18.41214592 33.32674973 -20 32 C-18.48490953 28.10778482 -16.14922263 26.43281212 -12.875 23.9375 C-9.04884573 20.77636574 -9.04884573 20.77636574 -7.625 16.25 C-7.79067006 14.38621184 -7.97535534 12.52400907 -8.1796875 10.6640625 C-7.93518813 7.03909362 -6.55888405 5.81825843 -4 3.3125 C-2.69154623 2.17896106 -1.36568454 1.06389264 0 0 Z " fill="#EC524F" transform="translate(334,29)"/>
<path d="M0 0 C3.51989082 4.44617788 6.35915242 9.3360357 9.328125 14.15625 C10.17347404 15.52103038 11.02562577 16.88162769 11.88549805 18.23730469 C12.76517665 19.6286036 13.61644036 21.03786741 14.45703125 22.453125 C16.70715388 24.70894414 18.56202379 24.60291877 21.6875 24.75 C22.68136719 24.80671875 23.67523438 24.8634375 24.69921875 24.921875 C25.45847656 24.94765625 26.21773438 24.9734375 27 25 C27 25.33 27 25.66 27 26 C25.98421875 26.02578125 24.9684375 26.0515625 23.921875 26.078125 C22.53121267 26.1345032 21.14058929 26.19184808 19.75 26.25 C18.75613281 26.27126953 18.75613281 26.27126953 17.7421875 26.29296875 C6.57358559 26.8197896 -3.26734443 31.84663184 -12.9375 37.0625 C-13.93845703 37.59166016 -14.93941406 38.12082031 -15.97070312 38.66601562 C-21.39486985 41.53564664 -21.39486985 41.53564664 -26.64526367 44.70507812 C-29 46 -29 46 -31.7734375 45.49609375 C-35.88403966 43.59008815 -39.74473029 41.39672475 -43.625 39.0625 C-44.37523437 38.61970703 -45.12546875 38.17691406 -45.8984375 37.72070312 C-47.94664545 36.50230992 -49.97480815 35.2561385 -52 34 C-52.83273437 33.50371094 -53.66546875 33.00742187 -54.5234375 32.49609375 C-56 31 -56 31 -56.09228516 28.40649414 C-56.06183105 27.61235107 -56.03137695 26.81820801 -56 26 C-55.05253906 25.54898926 -55.05253906 25.54898926 -54.0859375 25.08886719 C-51.05616631 23.64492364 -48.02785792 22.19795142 -45 20.75 C-43.88254395 20.21584473 -42.76508789 19.68168945 -41.61376953 19.13134766 C-32.63918018 14.82470294 -23.73376861 10.39043019 -14.8828125 5.83496094 C-9.96995586 3.33951476 -5.3706496 1.26455738 0 0 Z " fill="#C42828" transform="translate(398,235)"/>
<path d="M0 0 C4.69150889 -0.10064293 9.38235807 -0.17228117 14.07470703 -0.21972656 C15.66303481 -0.23955268 17.25129259 -0.26662221 18.83935547 -0.30175781 C30.15995673 -0.54551997 40.17602119 0.45398886 51 4 C51.7847168 4.22421631 52.56943359 4.44843262 53.37792969 4.67944336 C55 6 55 6 55.72949219 9.17700195 C55.85488232 10.52908747 55.95928795 11.88322168 56.046875 13.23828125 C56.10780334 13.95606247 56.16873169 14.67384369 56.23150635 15.41337585 C56.42210975 17.71204976 56.58609233 20.01178425 56.75 22.3125 C56.87461165 23.85104931 57.00089441 25.38946424 57.12890625 26.92773438 C58.08415209 38.71818133 58.08415209 38.71818133 58 44 C54.40601363 42.3846533 51.47361653 40.17106878 48.31640625 37.828125 C40.73843642 32.42476574 32.56410313 29.11657205 23.9375 25.75 C22.45968162 25.16036785 20.98246475 24.56922583 19.50585938 23.9765625 C16.66279044 22.83719773 13.81687068 21.70551471 10.96826172 20.58007812 C5.61545025 18.45862905 0.30483361 16.2385849 -5 14 C-3.44888032 9.27613552 -1.86121671 4.61272662 0 0 Z " fill="#ED524F" transform="translate(49,208)"/>
<path d="M0 0 C1.75140143 0.45294865 3.50107344 0.91258748 5.25 1.375 C6.71179688 1.75785156 6.71179688 1.75785156 8.203125 2.1484375 C12.90329586 3.57949511 12.90329586 3.57949511 15 5 C15.226875 6.27875 15.45375 7.5575 15.6875 8.875 C16.24393854 11.5555822 16.51853293 12.65351377 18.76953125 14.2734375 C21.14823151 15.31489996 23.53924847 16.17111527 26 17 C27.85740924 17.74193324 29.71168333 18.4917707 31.5625 19.25 C33.04097333 19.83508838 34.51988469 20.41907792 36 21 C36.495 25.455 36.495 25.455 37 30 C27.30317487 30.29874274 17.95190362 29.51021993 8.34033203 28.34594727 C5.97641822 28.05964391 3.6114566 27.78381642 1.24609375 27.50976562 C-0.27350729 27.33132247 -1.79304127 27.15230715 -3.3125 26.97265625 C-4.01149414 26.89032242 -4.71048828 26.80798859 -5.43066406 26.72315979 C-8.19722833 26.38696654 -10.92374805 26.0158791 -13.65307617 25.44750977 C-16.22891361 24.95635092 -18.6170685 24.87052268 -21.23828125 24.8671875 C-22.71651367 24.86525391 -22.71651367 24.86525391 -24.22460938 24.86328125 C-25.24361328 24.86714844 -26.26261719 24.87101562 -27.3125 24.875 C-28.31990234 24.87113281 -29.32730469 24.86726563 -30.36523438 24.86328125 C-36.0050934 24.8706296 -41.42216818 25.16032639 -47 26 C-48.32 22.7 -49.64 19.4 -51 16 C-39.90902359 12.99032395 -28.804827 10.18767204 -17.56396484 7.78833008 C-7.50433984 6.00609542 -7.50433984 6.00609542 0 0 Z " fill="#FB7171" transform="translate(438,194)"/>
<path d="M0 0 C1.01111343 0.00141495 2.02222687 0.0028299 3.0639801 0.00428772 C6.27315306 0.00985664 9.48225461 0.02240338 12.69140625 0.03515625 C14.87565003 0.04017527 17.05989491 0.04473747 19.24414062 0.04882812 C24.58075327 0.05981588 29.91732465 0.07652289 35.25390625 0.09765625 C33.97360339 2.65826196 32.93091776 2.90354147 30.35546875 4.1015625 C29.49993408 4.50479736 28.64439941 4.90803223 27.76293945 5.32348633 C26.8112085 5.7645874 25.85947754 6.20568848 24.87890625 6.66015625 C17.22819459 10.23888591 9.62893715 13.8917071 2.078125 17.67578125 C-0.30203318 18.86065516 -2.68290074 20.04409088 -5.06402588 21.22702026 C-6.64384171 22.01582948 -8.22096753 22.81004934 -9.79534912 23.60964966 C-12.02589546 24.7413131 -14.26545524 25.85290542 -16.5078125 26.9609375 C-17.17984207 27.30823914 -17.85187164 27.65554077 -18.54426575 28.0133667 C-23.16824254 30.26558102 -23.16824254 30.26558102 -25.94384766 29.45898438 C-26.83595947 28.78512695 -26.83595947 28.78512695 -27.74609375 28.09765625 C-28.40569092 27.68539795 -29.06528809 27.27313965 -29.74487305 26.84838867 C-31.98508731 25.34235121 -34.21151105 23.8178188 -36.43359375 22.28515625 C-37.21798828 21.76373047 -38.00238281 21.24230469 -38.81054688 20.70507812 C-39.55626953 20.18880859 -40.30199219 19.67253906 -41.0703125 19.140625 C-41.75182373 18.6768042 -42.43333496 18.2129834 -43.13549805 17.73510742 C-45.19778203 15.63843641 -45.40998163 13.9702459 -45.74609375 11.09765625 C-30.61235195 4.08773778 -16.78633964 -0.08931268 0 0 Z " fill="#FD7272" transform="translate(396.74609375,111.90234375)"/>
<path d="M0 0 C1.40112084 2.80224168 0.67537554 4.40295622 0.0390625 7.453125 C-0.29738281 9.09474609 -0.29738281 9.09474609 -0.640625 10.76953125 C-0.88296875 11.91808594 -1.1253125 13.06664062 -1.375 14.25 C-1.84191573 16.50504906 -2.3080852 18.76025279 -2.7734375 21.015625 C-2.98403809 22.01883789 -3.19463867 23.02205078 -3.41162109 24.05566406 C-4.00571347 27.02859106 -4.51751047 30.007118 -5 33 C-5.7734375 32.79503906 -6.546875 32.59007812 -7.34375 32.37890625 C-8.3853125 32.10949219 -9.426875 31.84007812 -10.5 31.5625 C-11.5209375 31.29566406 -12.541875 31.02882812 -13.59375 30.75390625 C-22.0058267 28.892059 -30.41486131 28.7140013 -39 28.4375 C-40.25167969 28.39431641 -41.50335938 28.35113281 -42.79296875 28.30664062 C-45.86188523 28.20121983 -48.93087389 28.09909658 -52 28 C-48.9182982 22.22056785 -45.61957993 16.78301931 -41.75 11.5 C-41.30398437 10.88125 -40.85796875 10.2625 -40.3984375 9.625 C-37.1860119 5.1860119 -37.1860119 5.1860119 -36 4 C-34.53066223 3.87872848 -33.05603299 3.820354 -31.58203125 3.7890625 C-30.66309082 3.76255615 -29.74415039 3.7360498 -28.79736328 3.70874023 C-27.8123584 3.68110596 -26.82735352 3.65347168 -25.8125 3.625 C-16.87664077 3.31244073 -8.65547012 2.34849787 0 0 Z " fill="#C42828" transform="translate(110,164)"/>
<path d="M0 0 C1.1446875 0.01353516 1.1446875 0.01353516 2.3125 0.02734375 C2.869375 0.03894531 3.42625 0.05054687 4 0.0625 C2.62878715 4.35118699 1.24606317 8.52305383 -0.625 12.625 C-2.20351588 16.5712897 -2.63011999 19.84586793 -3 24.0625 C-3.77601563 24.16046875 -4.55203125 24.2584375 -5.3515625 24.359375 C-13.86637162 25.53803593 -21.79318407 27.5278612 -30 30.0625 C-29.896875 28.78375 -29.79375 27.505 -29.6875 26.1875 C-30.03599917 22.40808657 -31.17087148 20.65151367 -33.9609375 18.23828125 C-37.2000456 15.68745552 -40.56971925 13.34776353 -44 11.0625 C-43 9.0625 -43 9.0625 -40.91015625 8.1328125 C-34.58911288 6.03446888 -28.24447194 4.32955757 -21.75 2.875 C-21.0062915 2.70822754 -20.26258301 2.54145508 -19.49633789 2.36962891 C-13.04801815 0.97675176 -6.62189005 -0.10346703 0 0 Z " fill="#C32828" transform="translate(388,72.9375)"/>
<path d="M0 0 C6.12475278 1.21926777 11.9003592 2.87431731 17.75390625 5.0390625 C18.54022934 5.32478119 19.32655243 5.61049988 20.13670349 5.90487671 C22.61391721 6.80634619 25.08821809 7.71551856 27.5625 8.625 C29.25567168 9.24270222 30.94902955 9.85989436 32.64257812 10.4765625 C36.76389171 11.97849466 40.8826142 13.48733521 45 15 C44.88506243 16.89646998 44.75760358 18.79218332 44.625 20.6875 C44.55539062 21.74324219 44.48578125 22.79898437 44.4140625 23.88671875 C44.01239911 26.90677269 43.25930981 29.24078054 42 32 C30.02745152 25.50011052 19.400187 17.92420201 8.9375 9.1875 C8.38892334 8.73141357 7.84034668 8.27532715 7.27514648 7.80541992 C4.46152533 5.41619727 2.06573082 3.06643087 0 0 Z " fill="#FC7171" transform="translate(432,279)"/>
<path d="M0 0 C-0.144375 1.12277344 -0.28875 2.24554688 -0.4375 3.40234375 C-1.38510154 10.97048759 -2.27792773 18.35698747 -2 26 C-4.4921875 27.35546875 -4.4921875 27.35546875 -8 28 C-11.05846175 26.55585531 -13.53063911 24.46163198 -16.125 22.3125 C-16.82753906 21.75626953 -17.53007812 21.20003906 -18.25390625 20.62695312 C-19.56751107 19.58525706 -20.87450307 18.53512489 -22.17236328 17.47387695 C-24.01520907 15.93439804 -24.01520907 15.93439804 -26.22998047 14.56323242 C-26.81408691 14.04736572 -27.39819336 13.53149902 -28 13 C-28 11.68 -28 10.36 -28 9 C-25.48159568 7.86928786 -22.96051069 6.74535012 -20.4375 5.625 C-19.73302734 5.30789062 -19.02855469 4.99078125 -18.30273438 4.6640625 C-12.36178073 2.03580651 -6.62207541 -0.4013379 0 0 Z " fill="#EB524F" transform="translate(379,114)"/>
<path d="M0 0 C4.33159896 1.17706493 7.14266241 4.41233641 10.15625 7.5859375 C11.39375 8.7925 11.39375 8.7925 12.65625 10.0234375 C14.90185721 13.85968316 14.71752081 16.16592984 14.15625 20.5859375 C12.65625 23.0859375 12.65625 23.0859375 10.15625 24.5859375 C5.88533683 25.36893825 3.66633607 25.56530492 0 23.1875 C-2.07404434 21.41527554 -3.96590585 19.56349018 -5.84375 17.5859375 C-6.66875 16.7815625 -7.49375 15.9771875 -8.34375 15.1484375 C-10.58935721 11.31219184 -10.40502081 9.00594516 -9.84375 4.5859375 C-7.45735798 0.60861746 -4.61578931 -0.22390023 0 0 Z " fill="#313131" transform="translate(305.84375,127.4140625)"/>
<path d="M0 0 C4.33159896 1.17706493 7.14266241 4.41233641 10.15625 7.5859375 C11.39375 8.7925 11.39375 8.7925 12.65625 10.0234375 C14.90185721 13.85968316 14.71752081 16.16592984 14.15625 20.5859375 C12.65625 23.0859375 12.65625 23.0859375 10.15625 24.5859375 C5.88533683 25.36893825 3.66633607 25.56530492 0 23.1875 C-2.07404434 21.41527554 -3.96590585 19.56349018 -5.84375 17.5859375 C-6.66875 16.7815625 -7.49375 15.9771875 -8.34375 15.1484375 C-10.58935721 11.31219184 -10.40502081 9.00594516 -9.84375 4.5859375 C-7.45735798 0.60861746 -4.61578931 -0.22390023 0 0 Z " fill="#313131" transform="translate(209.84375,15.4140625)"/>
<path d="M0 0 C1.55859375 1.0703125 1.55859375 1.0703125 3.55859375 3.0703125 C3.40083518 6.14660466 3.04724519 7.5991129 0.80859375 9.7578125 C-5.75093957 13.58420694 -12.43067692 14.26763899 -19.828125 12.5 C-23.35986989 11.25964597 -26.04771246 9.95147585 -28.44140625 7.0703125 C-28.50390625 4.6328125 -28.50390625 4.6328125 -27.44140625 2.0703125 C-19.37627411 -4.38179321 -9.01324967 -5.0594125 0 0 Z " fill="#C12828" transform="translate(180.44140625,178.9296875)"/>
<path d="M0 0 C1.93552734 0.00676758 1.93552734 0.00676758 3.91015625 0.01367188 C7.06515375 0.02535705 10.22005137 0.04173956 13.375 0.0625 C9.46949051 4.08748971 5.33929692 7.75007326 1.0625 11.375 C0.09473633 12.19967773 0.09473633 12.19967773 -0.89257812 13.04101562 C-2.46843442 14.38341173 -4.04649121 15.72322394 -5.625 17.0625 C-9.67924688 15.25948066 -13.1565927 12.69224872 -16.75 10.125 C-17.38292969 9.68220703 -18.01585938 9.23941406 -18.66796875 8.78320312 C-21.58517515 6.70523551 -23.61901728 5.07147408 -25.625 2.0625 C-21.08890865 -2.47359135 -5.89348217 -0.03945173 0 0 Z " fill="#E9514F" transform="translate(125.625,431.9375)"/>
<path d="M0 0 C1 3 1 3 -0.21484375 5.99609375 C-0.78332031 7.13175781 -1.35179687 8.26742187 -1.9375 9.4375 C-4.46672273 14.46067197 -4.46672273 14.46067197 -5 20 C-24.83548632 29.74430091 -24.83548632 29.74430091 -36 29 C-34.84570209 27.84570209 -33.69058577 26.69221613 -32.5324707 25.54174805 C-31.51590392 24.51902713 -30.5115609 23.48400008 -29.52026367 22.43676758 C-24.87624992 17.60453081 -19.80040316 13.6664629 -14.375 9.75 C-13.12589844 8.83347656 -13.12589844 8.83347656 -11.8515625 7.8984375 C-7.99485576 5.08574373 -4.16529292 2.34616499 0 0 Z " fill="#E9524F" transform="translate(125,123)"/>
<path d="M0 0 C2.5 1.5 2.5 1.5 4 4 C4.791013 8.02098277 4.62153384 10.96411027 2.5 14.5 C-1.03588973 16.62153384 -3.97901723 16.791013 -8 16 C-10.5 14.5 -10.5 14.5 -12 12 C-12.791013 7.97901723 -12.62153384 5.03588973 -10.5 1.5 C-6.96411027 -0.62153384 -4.02098277 -0.791013 0 0 Z " fill="#313131" transform="translate(388,456)"/>
<path d="M0 0 C2.5 1.5 2.5 1.5 4 4 C4.791013 8.02098277 4.62153384 10.96411027 2.5 14.5 C-1.03588973 16.62153384 -3.97901723 16.791013 -8 16 C-10.5 14.5 -10.5 14.5 -12 12 C-12.791013 7.97901723 -12.62153384 5.03588973 -10.5 1.5 C-6.96411027 -0.62153384 -4.02098277 -0.791013 0 0 Z " fill="#313131" transform="translate(476,400)"/>
<path d="M0 0 C2.5 1.5 2.5 1.5 4 4 C4.791013 8.02098277 4.62153384 10.96411027 2.5 14.5 C-1.03588973 16.62153384 -3.97901723 16.791013 -8 16 C-10.5 14.5 -10.5 14.5 -12 12 C-12.791013 7.97901723 -12.62153384 5.03588973 -10.5 1.5 C-6.96411027 -0.62153384 -4.02098277 -0.791013 0 0 Z " fill="#313131" transform="translate(364,312)"/>
<path d="M0 0 C2.5 1.5 2.5 1.5 4 4 C4.791013 8.02098277 4.62153384 10.96411027 2.5 14.5 C-1.03588973 16.62153384 -3.97901723 16.791013 -8 16 C-10.5 14.5 -10.5 14.5 -12 12 C-12.791013 7.97901723 -12.62153384 5.03588973 -10.5 1.5 C-6.96411027 -0.62153384 -4.02098277 -0.791013 0 0 Z " fill="#313131" transform="translate(468,152)"/>
<path d="M0 0 C2.5 1.5 2.5 1.5 4 4 C4.791013 8.02098277 4.62153384 10.96411027 2.5 14.5 C-1.03588973 16.62153384 -3.97901723 16.791013 -8 16 C-10.5 14.5 -10.5 14.5 -12 12 C-12.791013 7.97901723 -12.62153384 5.03588973 -10.5 1.5 C-6.96411027 -0.62153384 -4.02098277 -0.791013 0 0 Z " fill="#313131" transform="translate(260,48)"/>
<path d="M0 0 C2.5 1.5 2.5 1.5 4 4 C4.791013 8.02098277 4.62153384 10.96411027 2.5 14.5 C-1.03588973 16.62153384 -3.97901723 16.791013 -8 16 C-10.5 14.5 -10.5 14.5 -12 12 C-12.791013 7.97901723 -12.62153384 5.03588973 -10.5 1.5 C-6.96411027 -0.62153384 -4.02098277 -0.791013 0 0 Z " fill="#313131" transform="translate(476,32)"/>
<path d="M0 0 C6.875 3.9375 6.875 3.9375 9.03466797 5.17553711 C12.48199884 7.1530686 12.48199884 7.1530686 16 9 C16 9.66 16 10.32 16 11 C13.5472865 12.63514233 11.10780245 14.1481246 8.5625 15.625 C7.50192383 16.25535156 7.50192383 16.25535156 6.41992188 16.8984375 C1.15834263 20 1.15834263 20 0 20 C0 13.4 0 6.8 0 0 Z " fill="#C32828" transform="translate(432,430)"/>
<path d="M0 0 C2 2.5 2 2.5 3 5 C-3.44283279 5.10402152 -9.66459122 4.73459309 -16.0625 4 C-16.92810547 3.90460938 -17.79371094 3.80921875 -18.68554688 3.7109375 C-20.79084969 3.47830736 -22.89549956 3.23978031 -25 3 C-25 2.67 -25 2.34 -25 2 C-22.33397504 1.66068773 -19.66736986 1.32842824 -17 1 C-15.88431641 0.85691406 -15.88431641 0.85691406 -14.74609375 0.7109375 C-9.79295783 0.10794704 -4.98877996 -0.30632859 0 0 Z " fill="#E56A6A" transform="translate(470,110)"/>
<path d="M0 0 C4.75 1.875 4.75 1.875 7 3 C7 3.66 7 4.32 7 5 C4.8828125 6.5078125 4.8828125 6.5078125 2.125 8.125 C1.22007812 8.66382813 0.31515625 9.20265625 -0.6171875 9.7578125 C-3 11 -3 11 -5 11 C-3.55049545 7.2089881 -1.84827434 3.6125362 0 0 Z " fill="#D93734" transform="translate(441,436)"/>
<path d="M0 0 C0 0.66 0 1.32 0 2 C1.32 2.33 2.64 2.66 4 3 C-1.28 2.67 -6.56 2.34 -12 2 C-12 1.67 -12 1.34 -12 1 C-7.95858806 0.36605303 -4.0934693 -0.12404452 0 0 Z " fill="#C86161" transform="translate(457,111)"/>
</svg>
